# AST/ASF file generated using VICON BodyLanguage
# -----------------------------------------------
:version 1.10
:name VICON
:units
  mass 1.0
  length 0.45
  angle deg
:documentation
   .ast/.asf automatically generated from VICON data using
   VICON BodyBuilder and BodyLanguage model FoxedUp or BRILLIANT.MOD
:root
   order TX TY TZ RX RY RZ
   axis XYZ
   position 0 0 0  
   orientation 0 0 0 
:bonedata
  begin
     id 1 
     name lhipjoint
     direction 0.623415 -0.642378 0.445763 
     length 2.49859 
     axis 0 0 0  XYZ
  end
  begin
     id 2 
     name lfemur
     direction 0.34202 -0.939693 0  
     length 6.69689  
     axis 0 0 20  XYZ
    dof rx ry rz
    limits (-160.0 20.0)
           (-70.0 70.0)
           (-60.0 70.0)
  end
  begin
     id 3 
     name ltibia
     direction 0.34202 -0.939693 0   
     length 7.37574   
     axis 0 0 20   XYZ
    dof rx
    limits (-10.0 170.0)
  end
  begin
     id 4 
     name lfoot
     direction 0.084323 -0.231675 0.969132   
     length 2.09111   
     axis -90 7.62852e-016 20   XYZ
    dof rx rz
    limits (-45.0 90.0)
           (-70.0 20.0)
  end
  begin
     id 5 
     name ltoes
     direction 1.5357e-011 -4.21957e-011 1   
     length 1.04989   
     axis -90 7.62852e-016 20   XYZ
    dof rx
    limits (-90.0 20.0)
  end
  begin
     id 6 
     name rhipjoint
     direction -0.605402 -0.653903 0.45376   
     length 2.45455  
     axis 0 0 0  XYZ 
  end
  begin
     id 7 
     name rfemur
     direction -0.34202 -0.939693 0   
     length 6.64523   
     axis 0 0 -20   XYZ
    dof rx ry rz
    limits (-160.0 20.0)
           (-70.0 70.0)
           (-70.0 60.0)
  end
  begin
     id 8 
     name rtibia
     direction -0.34202 -0.939693 0   
     length 7.3339   
     axis 0 0 -20   XYZ
    dof rx
    limits (-10.0 170.0)
 end
 begin
     id 9 
     name rfoot
     direction -0.120854 -0.332043 0.93549   
     length 2.23135  
     axis -90 -7.62852e-016 -20   XYZ
    dof rx rz
    limits (-45.0 90.0)
           (-20.0 70.0)
  end
  begin
     id 10 
     name rtoes
     direction -1.53563e-011 -4.21914e-011 1   
     length 1.10614   
     axis -90 -7.62852e-016 -20   XYZ
    dof rx
    limits (-90.0 20.0)
  end
  begin
     id 11 
     name lowerback
     direction 0.0319682 0.998615 -0.0417941   
     length 2.02718   
     axis 0 0 0   XYZ
    dof rx ry rz
    limits (-20.0 45.0)
           (-30.0 30.0)
           (-30.0 30.0)
  end
  begin
     id 12 
     name upperback
     direction 7.63181e-005 0.995808 0.0914691   
     length 1.97539   
     axis 0 0 0   XYZ
    dof rx ry rz
    limits (-20.0 45.0)
           (-30.0 30.0)
           (-30.0 30.0)
  end
  begin
     id 13 
     name thorax
     direction -0.016423 0.993627 0.111514   
     length 2.00349   
     axis 0 0 0   XYZ
    dof rx ry rz
    limits (-20.0 45.0)
           (-30.0 30.0)
           (-30.0 30.0)
  end
  begin
     id 14 
     name lowerneck
     direction -0.174763 0.981668 -0.0760716   
     length 1.71436   
     axis 0 0 0   XYZ
    dof rx ry rz
    limits (-20.0 45.0)
           (-30.0 30.0)
           (-30.0 30.0)
  end
  begin
     id 15 
     name upperneck
     direction 0.345458 0.934587 -0.0848868   
     length 1.72805   
     axis 0 0 0   XYZ
    dof rx ry rz
    limits (-20.0 45.0)
           (-30.0 30.0)
           (-30.0 30.0)
  end
  begin
     id 16
     name head
     direction 0.13001 0.989848 -0.0574291  
     length 1.767  
     axis 0 0 0   XYZ
    dof rx ry rz
    limits (-20.0 45.0)
           (-30.0 30.0)
           (-30.0 30.0)
  end
  begin
     id 17 
     name lclavicle
     direction 0.952951 0.290122 0.0878234  
     length 3.54654  
     axis 0 0 0   XYZ
    dof ry rz
    limits (-20.0 10.0)
           (0.0 20.0)
  end
  begin
     id 18 
     name lhumerus
     direction 1 -4.48957e-011 -4.56525e-028   
     length 5.19807   
     axis 180 -30 -90   XYZ
    dof rx ry rz
    limits (-60.0 90.0)
           (-90.0 90.0)
           (-90.0 90.0)
  end
  begin
     id 19
     name lradius
     direction 1 -4.48979e-011 -2.0317e-027   
     length 3.0937   
     axis 180 -30 -90   XYZ
    dof rx
    limits (-10.0 170.0)
  end
  begin
     id 20
     name lwrist
     direction 1 -4.48953e-011 -3.05809e-027   
     length 1.54685   
     axis 8.48514e-016 90 90   XYZ
    dof ry
    limits (-180.0 0.0)
 end
  begin
     id 21 
     name lhand
     direction 1 -4.48952e-011 -6.11639e-027   
     length 0.672632   
     axis 3.9013e-015 90 90   XYZ
    dof rx rz
    limits (-90.0 90.0)
           (-45.0 45.0)
  end
  begin
     id 22 
     name lfingers
     direction 1 -4.48925e-011 -1.22426e-026   
     length 0.542293   
     axis 7.80276e-015 90 90   XYZ
    dof rx
    limits (0.0 90.0)
  end
  begin
     id 23
     name lthumb
     direction 0.707107 -6.3486e-011 0.707107   
     length 0.778628   
     axis -90 45 5.37419e-014   XYZ
    dof rx rz
    limits (-45.0 45.0)
           (-45.0 45.0)
  end
  begin
     id 24 
     name rclavicle
     direction -0.960732 0.273675 -0.0457849   
     length 3.52079  
     axis 0 0 0   XYZ 
    dof ry rz
    limits (-10.0 20.0)
           (-20.0 0.0)
  end
  begin
     id 25 
     name rhumerus
     direction -1 -4.48976e-011 -1.63613e-027  
     length 5.45222   
     axis 180 30 90   XYZ
    dof rx ry rz
    limits (-90.0 60.0)
           (-90.0 90.0)
           (-90.0 90.0)
  end
  begin
     id 26 
     name rradius
     direction -1 -4.48957e-011 -7.00033e-028   
     length 3.01284   
     axis 180 30 90   XYZ
    dof rx
    limits (-10.0 170.0)
  end
  begin
     id 27 
     name rwrist
     direction -1 -4.48983e-011 -3.05543e-027   
     length 1.50642   
     axis 8.48514e-016 -90 -90   XYZ
    dof ry
    limits (-180.0 0.0)
  end
  begin
     id 28
     name rhand
     direction -1 -4.48984e-011 -6.11072e-027   
     length 0.622296   
     axis 3.9013e-015 -90 -90   XYZ
    dof rx rz
    limits (-90.0 90.0)
           (-45.0 45.0)
  end
  begin
     id 29
     name rfingers
     direction -1 -4.48865e-011 -1.22637e-026   
     length 0.501711   
     axis 7.80276e-015 -90 -90   XYZ
    dof rx
    limits (0.0 90.0)
  end
  begin
     id 30
     name rthumb
     direction -0.707107 -6.34932e-011 0.707107   
     length 0.72036   
     axis -90 -45 -5.37419e-014   XYZ
    dof rx rz
    limits (-45.0 45.0)
           (-45.0 45.0)
  end
:hierarchy
  begin
    root lhipjoint rhipjoint lowerback
    lhipjoint lfemur
    lfemur ltibia
    ltibia lfoot
    lfoot ltoes
    rhipjoint rfemur
    rfemur rtibia
    rtibia rfoot
    rfoot rtoes
    lowerback upperback
    upperback thorax
    thorax lowerneck lclavicle rclavicle
    lowerneck upperneck
    upperneck head
    lclavicle lhumerus
    lhumerus lradius
    lradius lwrist
    lwrist lhand lthumb
    lhand lfingers
    rclavicle rhumerus
    rhumerus rradius
    rradius rwrist
    rwrist rhand rthumb
    rhand rfingers
  end

#!OML:ASF H:\Not Pregnant\Project 1\Capture day 1\Session 1\non-pregnant.ASF
:FULLY-SPECIFIED
:DEGREES
157
root -6.13477 16.5473 -16.6865 -168.303 2.33089 -172.943
lowerback 2.09469 2.22882 7.45673
upperback -7.26133 4.05716 0.510259
thorax -8.42604 1.72431 -4.01889
lowerneck 21.1501 -7.51554 -30.687
upperneck -12.5746 -19.9162 43.5617
head 1.50538 -13.8518 23.2517
rclavicle 4.01172e-014 2.62396e-014
rhumerus -28.1274 -5.5742 -82.8456
rradius 39.6906
rwrist 14.9872
rhand -12.1754 -0.18772
rfingers 7.12502
rthumb 13.8879 -29.704
lclavicle 4.01172e-014 2.62396e-014
lhumerus -42.0659 -2.80704 83.2651
lradius 34.3659
lwrist 38.3795
lhand -17.5228 -11.8838
lfingers 7.12502
lthumb 8.73082 17.9156
rfemur -5.63984 4.09302 30.9029
rtibia 19.9483
rfoot -19.3036 15.3782
rtoes -13.567
lfemur -45.2303 5.37918 -13.3034
ltibia 23.5688
lfoot 10.9917 -7.37014
ltoes -14.0095
158
root -6.11456 16.5317 -16.5731 -168.42 2.27857 -172.963
lowerback 2.35777 2.24874 7.4073
upperback -7.19894 4.08832 0.527839
thorax -8.5112 1.73462 -3.98836
lowerneck 21.195 -7.52768 -30.6941
upperneck -12.5817 -19.9147 43.5364
head 1.49159 -13.8431 23.2413
rclavicle 1.26725e-014 -9.93923e-016
rhumerus -28.1089 -5.28045 -82.8921
rradius 40.0549
rwrist 14.7856
rhand -12.2179 -0.0471201
rfingers 7.12502
rthumb 13.847 -29.5662
lclavicle 1.26725e-014 -9.93923e-016
lhumerus -42.4527 -2.84043 83.5047
lradius 34.4579
lwrist 38.3766
lhand -17.3482 -11.9139
lfingers 7.12502
lthumb 8.89937 17.8784
rfemur -6.21627 4.05303 31.0335
rtibia 20.5364
rfoot -19.7322 14.9469
rtoes -13.1426
lfemur -45.2324 5.42211 -13.2344
ltibia 23.5881
lfoot 10.0467 -7.4051
ltoes -16.4608
159
root -6.09481 16.5175 -16.4627 -168.536 2.24321 -173.002
lowerback 2.58787 2.27404 7.33662
upperback -7.13243 4.12067 0.535548
thorax -8.57259 1.74771 -3.95457
lowerneck 21.2349 -7.54346 -30.6923
upperneck -12.587 -19.9211 43.5176
head 1.4826 -13.8404 23.2297
rclavicle -6.13748e-015 1.72943e-014
rhumerus -28.1114 -5.03756 -82.931
rradius 40.3621
rwrist 14.6467
rhand -12.2689 0.129737
rfingers 7.12502
rthumb 13.7979 -29.3927
lclavicle -6.13748e-015 1.72943e-014
lhumerus -42.8345 -2.87172 83.7408
lradius 34.5262
lwrist 38.3823
lhand -17.1659 -11.9222
lfingers 7.12502
lthumb 9.07525 17.8625
rfemur -6.80542 4.01491 31.1366
rtibia 21.16
rfoot -20.129 14.5397
rtoes -12.7701
lfemur -45.2381 5.52573 -13.2356
ltibia 23.783
lfoot 8.86836 -7.59971
ltoes -18.9555
160
root -6.07524 16.505 -16.3544 -168.653 2.22352 -173.05
lowerback 2.80026 2.3012 7.24893
upperback -7.06634 4.1528 0.542922
thorax -8.62499 1.76246 -3.91079
lowerneck 21.2743 -7.55626 -30.6937
upperneck -12.582 -19.9282 43.4977
head 1.47679 -13.8381 23.218
rclavicle 2.10898e-014 8.34896e-015
rhumerus -28.1383 -4.83462 -82.958
rradius 40.6083
rwrist 14.5656
rhand -12.2984 0.288867
rfingers 7.12502
rthumb 13.7694 -29.2355
lclavicle 2.10898e-014 8.34896e-015
lhumerus -43.2214 -2.88326 83.9755
lradius 34.5548
lwrist 38.3944
lhand -16.9795 -11.9293
lfingers 7.12502
lthumb 9.25508 17.8475
rfemur -7.38949 3.98971 31.2249
rtibia 21.7853
rfoot -20.4683 14.1578
rtoes -12.4346
lfemur -45.2585 5.65378 -13.2705
ltibia 24.1951
lfoot 7.52547 -7.88774
ltoes -21.34
161
root -6.05634 16.4957 -16.2503 -168.774 2.21256 -173.094
lowerback 2.99011 2.32724 7.16341
upperback -6.99653 4.18134 0.551359
thorax -8.66057 1.77632 -3.86539
lowerneck 21.3139 -7.5587 -30.6914
upperneck -12.5978 -19.9261 43.5006
head 1.46493 -13.8371 23.2276
rclavicle 1.60953e-014 2.04748e-014
rhumerus -28.1843 -4.66012 -82.9816
rradius 40.7863
rwrist 14.5303
rhand -12.3238 0.434348
rfingers 7.12502
rthumb 13.745 -29.0917
lclavicle 1.60953e-014 2.04748e-014
lhumerus -43.595 -2.89232 84.2122
lradius 34.5188
lwrist 38.4257
lhand -16.7979 -11.9561
lfingers 7.12502
lthumb 9.43035 17.8129
rfemur -7.9452 3.95186 31.3076
rtibia 22.3839
rfoot -20.7507 13.8351
rtoes -12.1416
lfemur -45.2929 5.79701 -13.3228
ltibia 24.8517
lfoot 6.11668 -8.17146
ltoes -23.4227
162
root -6.03806 16.4882 -16.1473 -168.914 2.19436 -173.109
lowerback 3.19016 2.35332 7.11791
upperback -6.92371 4.21402 0.564371
thorax -8.69699 1.78971 -3.83834
lowerneck 21.3587 -7.56176 -30.6915
upperneck -12.6104 -19.9277 43.5018
head 1.45457 -13.8381 23.2362
rclavicle -2.68359e-014 -5.96354e-016
rhumerus -28.2597 -4.53516 -82.9923
rradius 40.9057
rwrist 14.5277
rhand -12.3224 0.534168
rfingers 7.12502
rthumb 13.7463 -28.9918
lclavicle -2.68359e-014 -5.96354e-016
lhumerus -43.9702 -2.88587 84.444
lradius 34.455
lwrist 38.4633
lhand -16.6082 -11.9782
lfingers 7.12502
lthumb 9.61336 17.7824
rfemur -8.46495 3.90616 31.4167
rtibia 22.9545
rfoot -20.9557 13.5587
rtoes -11.8412
lfemur -45.3444 5.91934 -13.344
ltibia 25.7683
lfoot 4.64023 -8.38458
ltoes -25.3124
163
root -6.02058 16.4826 -16.0466 -169.08 2.16224 -173.104
lowerback 3.39542 2.37828 7.11326
upperback -6.84411 4.24825 0.579322
thorax -8.72704 1.80145 -3.83222
lowerneck 21.4083 -7.56553 -30.6905
upperneck -12.6237 -19.9297 43.5002
head 1.44263 -13.8389 23.243
rclavicle 4.28629e-014 4.17448e-014
rhumerus -28.3622 -4.46181 -82.9887
rradius 40.9614
rwrist 14.5516
rhand -12.3112 0.610378
rfingers 7.12502
rthumb 13.7571 -28.9148
lclavicle 4.28629e-014 4.17448e-014
lhumerus -44.3314 -2.84338 84.6593
lradius 34.3399
lwrist 38.4999
lhand -16.412 -12.0126
lfingers 7.12502
lthumb 9.80266 17.7392
rfemur -8.93714 3.83434 31.5435
rtibia 23.4956
rfoot -21.0958 13.3405
rtoes -11.5309
lfemur -45.4029 6.01185 -13.3397
ltibia 26.9487
lfoot 3.11672 -8.42151
ltoes -26.9592
164
root -6.00394 16.4777 -15.9472 -169.267 2.10897 -173.061
lowerback 3.61063 2.40111 7.16725
upperback -6.76405 4.28674 0.601049
thorax -8.75965 1.8118 -3.8526
lowerneck 21.4798 -7.56464 -30.692
upperneck -12.6414 -19.9272 43.4929
head 1.42243 -13.8376 23.2522
rclavicle -1.6524e-014 -2.80286e-014
rhumerus -28.4954 -4.43863 -82.9671
rradius 40.9442
rwrist 14.5984
rhand -12.3121 0.671188
rfingers 7.12502
rthumb 13.7562 -28.8541
lclavicle -1.6524e-014 -2.80286e-014
lhumerus -44.6805 -2.75876 84.856
lradius 34.1728
lwrist 38.5288
lhand -16.2148 -12.0712
lfingers 7.12502
lthumb 9.99292 17.6716
rfemur -9.3838 3.74191 31.7045
rtibia 24.0279
rfoot -21.1635 13.1774
rtoes -11.217
lfemur -45.4759 6.07398 -13.2922
ltibia 28.3826
lfoot 1.54397 -8.2322
ltoes -28.423
165
root -5.98873 16.4733 -15.849 -169.471 2.03006 -172.983
lowerback 3.82642 2.4173 7.28397
upperback -6.68066 4.32274 0.627546
thorax -8.78638 1.81752 -3.90256
lowerneck 21.5439 -7.57171 -30.6895
upperneck -12.6397 -19.9302 43.4669
head 1.4072 -13.8345 23.2416
rclavicle 2.41648e-015 -2.5842e-015
rhumerus -28.6545 -4.47312 -82.9317
rradius 40.8593
rwrist 14.6698
rhand -12.3307 0.739297
rfingers 7.12502
rthumb 13.7383 -28.7872
lclavicle 2.41648e-015 -2.5842e-015
lhumerus -45.0255 -2.62369 85.0239
lradius 33.9821
lwrist 38.5193
lhand -16.0227 -12.1093
lfingers 7.12502
lthumb 10.1783 17.6245
rfemur -9.81207 3.61667 31.8944
rtibia 24.5558
rfoot -21.1742 13.0804
rtoes -10.8723
lfemur -45.5608 6.09208 -13.1973
ltibia 30.0467
lfoot -0.0469615 -7.76201
ltoes -29.5708
166
root -5.97479 16.4693 -15.752 -169.671 1.93695 -172.879
lowerback 4.02862 2.42558 7.43831
upperback -6.60076 4.35344 0.663483
thorax -8.80837 1.81946 -3.96229
lowerneck 21.6011 -7.57939 -30.692
upperneck -12.627 -19.9314 43.4295
head 1.39393 -13.8272 23.2224
rclavicle 7.68427e-015 2.38542e-014
rhumerus -28.8309 -4.5417 -82.8842
rradius 40.6936
rwrist 14.7577
rhand -12.3762 0.797777
rfingers 7.12502
rthumb 13.6944 -28.7316
lclavicle 7.68427e-015 2.38542e-014
lhumerus -45.3605 -2.44569 85.1725
lradius 33.7477
lwrist 38.4447
lhand -15.8288 -12.1453
lfingers 7.12502
lthumb 10.3653 17.5793
rfemur -10.2563 3.47996 32.1006
rtibia 25.0944
rfoot -21.1253 13.0517
rtoes -10.5229
lfemur -45.6703 6.08601 -13.0724
ltibia 31.9081
lfoot -1.5939 -7.04054
ltoes -30.5189
167
root -5.96217 16.4661 -15.6576 -169.868 1.83793 -172.765
lowerback 4.20989 2.43241 7.61738
upperback -6.51649 4.38309 0.698565
thorax -8.8118 1.82046 -4.0351
lowerneck 21.6271 -7.60096 -30.6878
upperneck -12.607 -19.9424 43.3874
head 1.39142 -13.8217 23.1873
rclavicle -1.46604e-015 -1.23246e-014
rhumerus -29.0135 -4.66207 -82.8247
rradius 40.4514
rwrist 14.8674
rhand -12.4192 0.822578
rfingers 7.12502
rthumb 13.6531 -28.7096
lclavicle -1.46604e-015 -1.23246e-014
lhumerus -45.6742 -2.25064 85.3083
lradius 33.4718
lwrist 38.3314
lhand -15.6564 -12.1494
lfingers 7.12502
lthumb 10.5316 17.5668
rfemur -10.7051 3.3253 32.3027
rtibia 25.6375
rfoot -21.0518 13.0908
rtoes -10.2071
lfemur -45.7813 6.07158 -12.9423
ltibia 33.9244
lfoot -3.006 -6.11333
ltoes -31.1233
